<svg width="256" height="256" viewBox="0 0 256 256" fill="none" xmlns="http://www.w3.org/2000/svg">
<rect width="256" height="256" rx="60" fill="#272338"/>
<path d="M67.2741 64.0966C75.0832 56.8084 83.2475 52.7232 91.7537 51.8474C95.1036 51.5024 102.583 51.1705 108.376 51.1104L118.909 51V64.3929V77.7857L108.376 77.8052C96.2122 77.8271 92.731 78.4505 88.4353 81.3758C83.7985 84.5333 81.7621 88.7614 80.8815 97.0576C79.649 108.679 75.7127 118.942 70.0622 125.266L67.4633 128.174C58.7618 138.706 51.3724 141.557 34.2651 141.909L28.4519 141.503L28.2255 128.013L28 114.523L34.4212 114.146C43.0845 113.637 47.0481 111.601 50.3128 105.985C51.6709 103.649 52.9844 100.093 53.2338 98.082C55.5304 79.5203 58.5316 72.2565 67.2741 64.0966Z" fill="url(#paint0_linear_203_22)"/>
<path d="M67.2741 192.449C75.0832 199.737 83.2475 203.822 91.7537 204.698C95.1036 205.043 102.583 205.375 108.376 205.435L118.909 205.545L118.909 192.153L118.909 178.76L108.376 178.74C96.2122 178.718 92.731 178.095 88.4353 175.17C83.7985 172.012 81.7622 167.784 80.8815 159.488C79.649 147.866 75.7127 137.603 70.0622 131.279L67.4633 128.372C58.7618 117.84 51.3724 114.988 34.2651 114.636L28.4519 115.042L28.2255 128.532L28 142.023L34.4212 142.399C43.0845 142.908 47.0481 144.944 50.3128 150.561C51.6709 152.897 52.9844 156.453 53.2339 158.463C55.5304 177.025 58.5316 184.289 67.2741 192.449Z" fill="url(#paint1_linear_203_22)"/>
<path d="M188.726 192.449C180.917 199.737 172.753 203.822 164.246 204.698C160.896 205.043 153.417 205.375 147.624 205.435L137.091 205.545L137.091 192.153L137.091 178.76L147.624 178.74C159.788 178.718 163.269 178.095 167.565 175.17C172.202 172.012 174.238 167.784 175.118 159.488C176.351 147.866 180.287 137.603 185.938 131.279L188.537 128.372C197.238 117.84 204.628 114.988 221.735 114.636L227.548 115.042L227.774 128.532L228 142.023L221.579 142.399C212.916 142.908 208.952 144.944 205.687 150.561C204.329 152.897 203.016 156.453 202.766 158.463C200.47 177.025 197.468 184.289 188.726 192.449Z" fill="url(#paint2_linear_203_22)"/>
<path d="M188.726 64.0966C180.917 56.8084 172.753 52.7232 164.246 51.8474C160.896 51.5024 153.417 51.1704 147.624 51.1104L137.091 51L137.091 64.3928L137.091 77.7857L147.624 77.8052C159.788 77.8271 163.269 78.4505 167.565 81.3758C172.202 84.5333 174.238 88.7614 175.118 97.0576C176.351 108.679 180.287 118.942 185.938 125.266L188.537 128.174C197.238 138.706 204.628 141.557 221.735 141.909L227.548 141.503L227.774 128.013L228 114.523L221.579 114.146C212.916 113.637 208.952 111.601 205.687 105.985C204.329 103.649 203.016 100.093 202.766 98.082C200.47 79.5203 197.468 72.2565 188.726 64.0966Z" fill="url(#paint3_linear_203_22)"/>
<defs>
<linearGradient id="paint0_linear_203_22" x1="118.749" y1="50.5356" x2="29.1642" y2="143.6" gradientUnits="userSpaceOnUse">
<stop stop-color="#FDE03F"/>
<stop offset="1" stop-color="#F4887F"/>
</linearGradient>
<linearGradient id="paint1_linear_203_22" x1="118.749" y1="206.01" x2="29.1642" y2="112.945" gradientUnits="userSpaceOnUse">
<stop stop-color="#F4887F"/>
<stop offset="1" stop-color="#FDE03F"/>
</linearGradient>
<linearGradient id="paint2_linear_203_22" x1="137.251" y1="206.01" x2="226.836" y2="112.945" gradientUnits="userSpaceOnUse">
<stop stop-color="#55F1A6"/>
<stop offset="1" stop-color="#BD21FE"/>
</linearGradient>
<linearGradient id="paint3_linear_203_22" x1="137.251" y1="50.5356" x2="226.836" y2="143.6" gradientUnits="userSpaceOnUse">
<stop stop-color="#BD21FE"/>
<stop offset="1" stop-color="#55F1A6"/>
</linearGradient>
</defs>
</svg>
