<svg width="285" height="628" viewBox="0 0 285 628" fill="none" xmlns="http://www.w3.org/2000/svg">
<g clip-path="url(#clip0_102_30)">
<path d="M68.0428 163.776C77.2287 162.339 84.2674 161.276 91.0076 160.182C93.4533 159.839 95.7642 159.33 98.181 159.285C101.522 159.037 105.817 158.286 106.741 162.761C107.53 167.071 103.342 168.286 100.376 169.329C97.3814 170.67 93.8475 171.351 90.6122 172.063C75.7934 175.619 60.8398 179.008 46.0499 182.265C42.0539 183.047 38.029 184.128 33.956 184.148C25.4827 184.454 22.575 180.22 25.878 172.573C30.3366 162.331 35.2285 152.287 40.1204 142.242C42.0463 137.919 44.136 133.463 46.63 129.502C48.0552 127.239 50.4817 125.535 52.4749 123.634C56.9039 127.727 55.0936 130.855 53.7454 133.881C50.5772 141.694 47.1105 149.476 43.9423 157.289C42.9215 160.048 41.7371 162.94 41.9294 167.187C45.1455 165.114 48.3327 163.34 51.414 161.102C74.4565 144.234 97.3352 127.5 120.378 110.633C153.81 86.1168 187.078 61.7342 220.645 37.3834C223.399 35.4125 226.827 34.2679 230.611 32.5574C231.304 39.4229 227.058 41.2351 224.14 43.3395C208.156 55.8263 191.738 68.1161 175.619 80.4376C140.791 106.918 105.962 133.399 71.1338 159.879C70.4501 160.712 70.0939 161.278 68.0428 163.776Z" fill="#FFE39C"/>
</g>
<g clip-path="url(#clip1_102_30)">
<path d="M51.1824 504.121C55.9561 512.099 59.5775 518.228 63.1166 524.067C64.3512 526.206 65.6885 528.158 66.6353 530.383C68.1169 533.388 70.4214 537.088 66.6181 539.621C62.9176 541.968 60.2225 538.539 58.1448 536.18C55.7791 533.906 53.8245 530.884 51.9522 528.151C43.1054 515.743 34.3613 503.147 25.8023 490.654C23.5802 487.242 21.0702 483.915 19.5266 480.145C16.069 472.404 18.9052 468.122 27.2334 468.32C38.3994 468.618 49.545 469.391 60.6906 470.165C65.4202 470.332 70.3349 470.6 74.9414 471.429C77.5737 471.903 80.0625 473.514 82.5716 474.65C80.4351 480.29 76.8569 479.783 73.5462 479.667C65.1152 479.655 56.6019 479.356 48.1709 479.344C45.2304 479.431 42.1048 479.417 38.2395 481.185C41.366 483.391 44.2046 485.682 47.4338 487.701C71.7041 502.748 95.7893 517.693 120.06 532.74C155.313 554.556 190.382 576.27 225.533 598.273C228.392 600.088 230.737 602.838 233.74 605.706C227.634 608.92 224.363 605.661 221.319 603.744C203.754 593.601 186.21 582.981 168.748 572.651C131.15 550.276 93.5517 527.902 55.9536 505.527C54.9253 505.205 54.2673 505.086 51.1824 504.121Z" fill="#FFE39C"/>
</g>
<g clip-path="url(#clip2_102_30)">
<path d="M76.0843 336.947C84.1114 341.639 90.2373 345.265 96.152 348.677C98.2644 349.956 100.377 351.023 102.278 352.516C105.024 354.435 108.826 356.568 106.714 360.62C104.602 364.459 100.588 362.752 97.6307 361.686C94.4621 360.833 91.2935 359.127 88.3362 357.634C74.6056 351.023 60.8751 344.198 47.3557 337.374C43.7647 335.454 39.9624 333.748 36.7938 331.189C30.0341 326.071 30.4566 320.952 37.85 317.113C47.7782 311.995 57.9177 307.303 68.0572 302.611C72.282 300.479 76.718 298.346 81.154 296.853C83.6889 296 86.6462 296.213 89.3924 296C90.2373 301.971 86.8575 303.251 83.9001 304.744C76.5068 308.796 68.9021 312.635 61.5088 316.687C58.9739 318.18 56.2278 319.673 53.6929 323.085C57.4952 323.511 61.0863 324.151 64.8886 324.364C93.4059 325.857 121.712 327.35 150.229 328.843C191.632 330.976 232.824 333.108 274.227 335.454C277.607 335.668 280.986 336.947 285 338.014C281.198 343.772 276.762 342.492 273.171 342.279C252.892 341.852 232.401 340.999 212.122 340.359C168.396 338.867 124.669 337.374 80.9428 335.881C79.8866 336.094 79.2529 336.307 76.0843 336.947Z" fill="#FFE39C"/>
</g>
<defs>
<clipPath id="clip0_102_30">
<rect width="253" height="67" fill="white" transform="translate(8 159.909) rotate(-39.2016)"/>
</clipPath>
<clipPath id="clip1_102_30">
<rect width="253" height="67" fill="white" transform="translate(32.2791 447) rotate(28.8015)"/>
</clipPath>
<clipPath id="clip2_102_30">
<rect width="253" height="67" fill="white" transform="translate(32 296)"/>
</clipPath>
</defs>
</svg>
