<svg width="285" height="628" viewBox="0 0 285 628" fill="none" xmlns="http://www.w3.org/2000/svg">
<g clip-path="url(#clip0_102_31)">
<path d="M216.957 163.776C207.771 162.339 200.733 161.276 193.992 160.182C191.547 159.839 189.236 159.33 186.819 159.285C183.478 159.037 179.183 158.286 178.259 162.761C177.47 167.071 181.658 168.286 184.624 169.329C187.619 170.67 191.152 171.351 194.388 172.063C209.207 175.619 224.16 179.008 238.95 182.265C242.946 183.047 246.971 184.128 251.044 184.148C259.517 184.454 262.425 180.22 259.122 172.573C254.663 162.331 249.772 152.287 244.88 142.242C242.954 137.919 240.864 133.463 238.37 129.502C236.945 127.239 234.518 125.535 232.525 123.634C228.096 127.727 229.906 130.855 231.255 133.881C234.423 141.694 237.889 149.476 241.058 157.289C242.078 160.048 243.263 162.94 243.071 167.187C239.854 165.114 236.667 163.34 233.586 161.102C210.544 144.234 187.665 127.5 164.622 110.633C131.19 86.1168 97.9218 61.7342 64.3548 37.3834C61.6008 35.4125 58.1729 34.2679 54.3887 32.5574C53.6958 39.4229 57.9422 41.2351 60.8598 43.3395C76.8441 55.8263 93.2617 68.1161 109.381 80.4376C144.209 106.918 179.038 133.399 213.866 159.879C214.55 160.712 214.906 161.278 216.957 163.776Z" fill="#FFE39C"/>
</g>
<g clip-path="url(#clip1_102_31)">
<path d="M233.818 504.121C229.044 512.099 225.422 518.228 221.883 524.067C220.649 526.206 219.311 528.158 218.365 530.383C216.883 533.388 214.579 537.088 218.382 539.621C222.082 541.968 224.777 538.539 226.855 536.18C229.221 533.906 231.176 530.884 233.048 528.151C241.895 515.743 250.639 503.147 259.198 490.654C261.42 487.242 263.93 483.915 265.473 480.145C268.931 472.404 266.095 468.122 257.767 468.32C246.601 468.618 235.455 469.391 224.309 470.165C219.58 470.332 214.665 470.6 210.059 471.429C207.426 471.903 204.938 473.514 202.428 474.65C204.565 480.29 208.143 479.783 211.454 479.667C219.885 479.655 228.398 479.356 236.829 479.344C239.77 479.431 242.895 479.417 246.76 481.185C243.634 483.391 240.795 485.682 237.566 487.701C213.296 502.748 189.211 517.693 164.94 532.74C129.687 554.556 94.6182 576.27 59.4673 598.273C56.6084 600.088 54.2631 602.838 51.2598 605.706C57.3659 608.92 60.6367 605.661 63.6808 603.744C81.2456 593.601 98.7901 582.981 116.252 572.651C153.85 550.276 191.448 527.902 229.046 505.527C230.075 505.205 230.733 505.086 233.818 504.121Z" fill="#FFE39C"/>
</g>
<g clip-path="url(#clip2_102_31)">
<path d="M208.916 336.947C200.889 341.639 194.763 345.265 188.848 348.677C186.736 349.956 184.623 351.023 182.722 352.516C179.976 354.435 176.174 356.568 178.286 360.62C180.398 364.459 184.412 362.752 187.369 361.686C190.538 360.833 193.706 359.127 196.664 357.634C210.394 351.023 224.125 344.198 237.644 337.374C241.235 335.454 245.038 333.748 248.206 331.189C254.966 326.071 254.543 320.952 247.15 317.113C237.222 311.995 227.082 307.303 216.943 302.611C212.718 300.479 208.282 298.346 203.846 296.853C201.311 296 198.354 296.213 195.608 296C194.763 301.971 198.143 303.251 201.1 304.744C208.493 308.796 216.098 312.635 223.491 316.687C226.026 318.18 228.772 319.673 231.307 323.085C227.505 323.511 223.914 324.151 220.111 324.364C191.594 325.857 163.288 327.35 134.771 328.843C93.3678 330.976 52.1761 333.108 10.7732 335.454C7.3934 335.668 4.01355 336.947 5.83074e-06 338.014C3.80231 343.772 8.23835 342.492 11.8294 342.279C32.1084 341.852 52.5986 340.999 72.8776 340.359C116.604 338.867 160.331 337.374 204.057 335.881C205.113 336.094 205.747 336.307 208.916 336.947Z" fill="#FFE39C"/>
</g>
<defs>
<clipPath id="clip0_102_31">
<rect width="253" height="67" fill="white" transform="matrix(-0.774927 -0.63205 -0.63205 0.774927 277 159.909)"/>
</clipPath>
<clipPath id="clip1_102_31">
<rect width="253" height="67" fill="white" transform="matrix(-0.876294 0.481777 0.481777 0.876294 252.721 447)"/>
</clipPath>
<clipPath id="clip2_102_31">
<rect width="253" height="67" fill="white" transform="matrix(-1 0 0 1 253 296)"/>
</clipPath>
</defs>
</svg>
